<svg xmlns:xlink="http://www.w3.org/1999/xlink" xmlns="http://www.w3.org/2000/svg" viewBox="0 0 374.5701295627396 170.9" height="170.9" width="374.5701295627396" style="width: 374.57px; height: 170.9px; position: absolute; top: 50%; left: 50%; transform: translate(-50%, -50%) scale(0.395654); z-index: 0; cursor: pointer;"><defs id="SvgjsDefs11077"><linearGradient id="SvgjsLinearGradient11086"><stop id="SvgjsStop11087" stop-color="#fe8dc6" offset="0"></stop><stop id="SvgjsStop11088" stop-color="#fed1c7" offset="1"></stop></linearGradient><linearGradient id="SvgjsLinearGradient11089"><stop id="SvgjsStop11090" stop-color="#fe8dc6" offset="0"></stop><stop id="SvgjsStop11091" stop-color="#fed1c7" offset="1"></stop></linearGradient><linearGradient id="SvgjsLinearGradient11086"><stop id="SvgjsStop11087" stop-color="#fe8dc6" offset="0"></stop><stop id="SvgjsStop11088" stop-color="#fed1c7" offset="1"></stop></linearGradient><linearGradient id="SvgjsLinearGradient11086"><stop id="SvgjsStop11087" stop-color="#fe8dc6" offset="0"></stop><stop id="SvgjsStop11088" stop-color="#fed1c7" offset="1"></stop></linearGradient><linearGradient id="SvgjsLinearGradient11086"><stop id="SvgjsStop11087" stop-color="#fe8dc6" offset="0"></stop><stop id="SvgjsStop11088" stop-color="#fed1c7" offset="1"></stop></linearGradient><linearGradient id="SvgjsLinearGradient11089"><stop id="SvgjsStop11090" stop-color="#fe8dc6" offset="0"></stop><stop id="SvgjsStop11091" stop-color="#fed1c7" offset="1"></stop></linearGradient><linearGradient id="SvgjsLinearGradient11089"><stop id="SvgjsStop11090" stop-color="#fe8dc6" offset="0"></stop><stop id="SvgjsStop11091" stop-color="#fed1c7" offset="1"></stop></linearGradient></defs><g id="SvgjsG11078" featurekey="LwVBM5-0" transform="matrix(1.125,0,0,1.125,131.75000751018524,-13.499931335449219)" fill="url(&quot;#SvgjsLinearGradient11086&quot;)"><g xmlns="http://www.w3.org/2000/svg" transform="translate(0,-952.36218)" fill="url(&quot;#SvgjsLinearGradient11086&quot;)"><path d="m 60.7828,964.36215 27.1809,0.8834 -27.1809,25.9958 z m -1.9745,1.4513 0,26.7845 -25.2681,0 c 8.6166,-8.7334 16.8796,-17.8103 25.2681,-26.7845 z m 27.7053,3.628 3.4864,1.1989 -12.5877,7.4768 z m -68.1835,2.9656 5.5226,0 12.8654,14.0705 -5.9854,6.1204 -12.4026,0 c 9e-4,-6.7347 0,-13.4597 0,-20.1909 z m -1.9746,1.2304 0,5.8364 -6.3555,0 z m 3.363,20.9796 38.627,0 -10.7675,29.43465 z m 39.0898,4.54286 0,41.20229 -12.5878,-6.8775 c 4.1972,-11.443 8.3886,-22.879 12.5878,-34.32479 z" style="text-indent:0;text-transform:none;direction:ltr;block-progression:tb;baseline-shift:baseline;color:;enable-background:accumulate;" fill="url(&quot;#SvgjsLinearGradient11086&quot;)" fill-opacity="1" stroke="none" marker="none" visibility="visible" display="inline" overflow="visible"></path></g></g><g id="SvgjsG11079" featurekey="duLK5n-0" transform="matrix(1.2684564083139407,0,0,1.2684564083139407,-0.7864434328384765,145.25181531910775)" fill="url(&quot;#SvgjsLinearGradient11089&quot;)"><path d="M6.3 20.14 c-0.48 0 -0.96 -0.06 -1.44 -0.16 c-1.48 -0.3 -2.94 -1.04 -4.24 -2.16 l1.18 -1.34 c1.06 0.92 2.24 1.54 3.42 1.78 c1 0.22 1.98 0.14 2.76 -0.22 c0.52 -0.24 1.42 -0.84 1.42 -2.06 c0 -1.5 -1.6 -2.04 -3.16 -2.34 c-0.14 -0.02 -2.38 -0.48 -3.28 -1 c-1.2 -0.72 -1.84 -1.8 -1.84 -3.12 c0 -0.74 0.24 -1.44 0.66 -2.06 c0.42 -0.56 1 -1.02 1.68 -1.34 c1 -0.48 2.18 -0.62 3.38 -0.42 c1.3 0.22 2.62 0.84 3.78 1.8 l-1.14 1.38 c-2.06 -1.7 -4.06 -1.74 -5.26 -1.18 c-0.82 0.38 -1.3 1.08 -1.3 1.8 c0 1.36 1.16 1.88 3 2.28 c0.76 0.18 2.34 0.44 3.28 0.98 c1.3 0.72 1.98 1.84 1.98 3.22 c0 0.82 -0.22 1.58 -0.68 2.24 c-0.42 0.6 -1.06 1.06 -1.78 1.42 c-0.76 0.38 -1.54 0.5 -2.42 0.5 z M34.596000000000004 5.32 c4.1 0 7.46 3.34 7.46 7.46 c0 4.1 -3.36 7.42 -7.46 7.42 s-7.44 -3.32 -7.44 -7.42 c0 -4.12 3.34 -7.46 7.44 -7.46 z M34.596000000000004 18.44 c3.12 0 5.64 -2.56 5.64 -5.66 c0 -3.12 -2.52 -5.7 -5.64 -5.7 s-5.64 2.58 -5.64 5.7 c0 3.1 2.52 5.66 5.64 5.66 z M65.132 18.46 c1.78 0 3.44 -0.82 4.54 -2.26 l1.4 1.04 c-1.42 1.9 -3.6 2.98 -5.94 2.98 c-4.12 0 -7.46 -3.34 -7.46 -7.46 c0 -4.1 3.34 -7.44 7.46 -7.44 c2.36 0 4.54 1.1 5.96 3 l-1.42 1.04 c-1.08 -1.46 -2.74 -2.28 -4.54 -2.28 c-3.16 0 -5.7 2.54 -5.7 5.68 c0 3.16 2.54 5.7 5.7 5.7 z M88.08800000000001 20 l0 -14.24 l1.8 0 l0 14.24 l-1.8 0 z M117.24400000000001 20 l-1.58 -4.14 l-5.82 0 l-1.58 4.14 l-1.92 0 l5.48 -14.24 l1.86 0 l5.5 14.24 l-1.94 0 z M114.96400000000001 14.1 l-2.2 -5.76 l-2.22 5.76 l4.42 0 z M135.34000000000003 20 l0 -14.24 l1.8 0 l0 12.5 l7.8 0 l0 1.74 l-9.6 0 z M192.99200000000002 20 l-1.78 0 l0 -11.36 l-4.54 6.2 l-4.52 -6.2 l0 11.36 l-1.78 0 l0 -14.24 l1.88 0 l4.42 6.08 l4.42 -6.08 l1.9 0 l0 14.24 z M210.14800000000002 20 l0 -14.24 l9 0 l0 1.72 l-7.2 0 l0 3.34 l6.28 0 l0 1.78 l-6.28 0 l0 5.64 l7.02 0 l0 1.76 l-8.82 0 z M235.764 20 l0 -14.24 l4.6 0 c4.04 0 7.32 3.2 7.32 7.12 s-3.28 7.12 -7.32 7.12 l-4.6 0 z M240.364 18.26 c3.06 0 5.54 -2.44 5.54 -5.38 s-2.48 -5.38 -5.54 -5.38 l-2.82 0 l0 10.76 l2.82 0 z M264.82 20 l0 -14.24 l1.8 0 l0 14.24 l-1.8 0 z M293.976 20 l-1.58 -4.14 l-5.82 0 l-1.58 4.14 l-1.92 0 l5.48 -14.24 l1.86 0 l5.5 14.24 l-1.94 0 z M291.69599999999997 14.1 l-2.2 -5.76 l-2.22 5.76 l4.42 0 z" fill="url(&quot;#SvgjsLinearGradient11089&quot;)"></path></g><g id="SvgjsG11080" featurekey="nameLeftFeature-0" transform="matrix(2.6549394358145673,0,0,2.6549394358145673,30.625751671929365,88.8996731255711)" fill="#FFFFFF"><path d="M16.644 6.441000000000001 c0.11864 0 0.20339 0.10186 0.20339 0.23746 l0 13.085 c0 0.15254 -0.084746 0.23712 -0.22034 0.23712 l-0.88136 0 c-0.16949 0 -0.23729 -0.08458 -0.23729 -0.23712 l0 -10.61 l-6.1697 10.407 c-0.067797 0.11864 -0.13559 0.16949 -0.25424 0.16949 l-0.067797 0 c-0.10169 0 -0.18644 -0.050847 -0.25424 -0.16949 l-6.1525 -10.407 l0 10.61 c0 0.15254 -0.084746 0.23712 -0.22034 0.23712 l-0.88136 0 c-0.15254 0 -0.23729 -0.08458 -0.23729 -0.23712 l0 -13.102 c0 -0.11881 0.067797 -0.22051 0.20339 -0.22051 l0.81356 0 c0.11864 0 0.18644 0.050847 0.25424 0.15271 l6.5086 10.983 l6.5254 -10.983 c0.050847 -0.10186 0.11864 -0.15271 0.27119 -0.15271 l0.79661 0 z M30.440644067796608 6.441000000000001 c0.08458 0 0.15188 0.10169 0.084083 0.20339 l-5.4064 7.7458 l0 5.3729 c0 0.15254 -0.067797 0.23712 -0.20339 0.23712 l-0.67797 0 c-0.28814 0 -0.44068 -0.18644 -0.44068 -0.47441 l0 -5.1356 l-5.4068 -7.7458 c-0.050847 -0.10169 0 -0.20339 0.10186 -0.20339 l1.1864 0 c0.10169 0 0.15254 0.067797 0.20339 0.16949 l4.5763 6.4746 l4.5764 -6.4746 c0.067797 -0.10169 0.10169 -0.16949 0.20339 -0.16949 l1.2034 0 z" fill="#FFFFFF"></path></g><g id="SvgjsG11081" featurekey="nameRightFeature-0" transform="matrix(2.609347486447183,0,0,2.609347486447183,117.89242879560791,89.50310788876052)" fill="#FFFFFF"><path d="M17.305067796610167 17.4578 c0.16949 0.13559 0.16933 0.30508 0.016784 0.45763 c-1.2542 1.3729 -3.0339 2.2032 -5.0678 2.2032 c-3.7288 0 -6.8475 -2.9998 -6.8475 -6.8642 c0 -3.8475 3.1186 -6.9322 6.8475 -6.9322 c2.0508 0 3.8475 0.84746 5.1186 2.2373 c0.15254 0.15254 0.13559 0.32203 -0.016949 0.45763 l-1.4068 1.1356 c-0.16966 0.13559 -0.32203 0.11864 -0.45763 -0.033898 c-0.72881 -0.76271 -1.8644 -1.4575 -3.2203 -1.4575 c-2.4915 0 -4.4405 2.1524 -4.4405 4.5931 c0 2.4746 1.949 4.5254 4.4405 4.5254 c1.339 0 2.4576 -0.66102 3.1695 -1.4068 c0.15254 -0.15254 0.30508 -0.16949 0.47458 -0.050847 z M32.25374576271186 19.62712 c0.10169 0.20339 0.034229 0.37271 -0.20305 0.37271 l-1.9831 0 c-0.16949 0 -0.27119 -0.08458 -0.33898 -0.22017 l-0.91525 -1.9322 l-6.5256 0 l-0.91525 1.9322 c-0.067797 0.13559 -0.18644 0.22017 -0.33898 0.22017 l-2 0 c-0.20339 0 -0.32203 -0.16933 -0.22034 -0.37271 l6.3898 -13.102 c0.067797 -0.11881 0.15238 -0.16966 0.23712 -0.16966 l0.20339 0 c0.10169 0 0.16949 0.050847 0.23729 0.16966 z M23.322245762711862 15.6441 l4.4576 0 l-2.2203 -4.7288 z M49.441050847457625 6.441000000000001 c0.18644 0 0.33915 0.15238 0.33915 0.32186 l0 12.898 c0 0.16949 -0.13559 0.33881 -0.3222 0.33881 l-1.7456 0 c-0.20339 0 -0.33898 -0.15238 -0.33898 -0.33881 l0 -8.2203 l-4.9492 7.8305 c-0.10186 0.16949 -0.20356 0.23729 -0.3561 0.23729 l-0.10169 0 c-0.15254 0 -0.25424 -0.067797 -0.35593 -0.23729 l-4.9322 -7.8475 l0 8.2375 c0 0.16949 -0.15254 0.33881 -0.33898 0.33881 l-1.7458 0 c-0.18644 0 -0.33898 -0.15238 -0.33898 -0.33881 l0 -12.898 c0 -0.16949 0.13559 -0.32203 0.33898 -0.32203 l1.4576 0 c0.16949 0 0.28814 0.067797 0.38983 0.22034 l5.5763 8.8134 l5.5932 -8.8134 c0.084746 -0.15254 0.20339 -0.22034 0.38983 -0.22034 l1.4407 0 z M57.66084745762711 6.441000000000001 c2.8136 0 4.661 2.5424 4.661 4.6271 c0 2.2373 -1.8475 4.661 -4.661 4.661 l-3 0 l0 3.9322 c0 0.20339 -0.13559 0.33881 -0.32203 0.33881 l-1.7966 0 c-0.16949 0 -0.30508 -0.13543 -0.30508 -0.33881 l0 -12.898 c0 -0.16949 0.13559 -0.32203 0.32203 -0.32203 l5.1017 0 z M57.406647457627116 13.39 c1.5932 0 2.4915 -1.1697 2.4915 -2.3222 c0 -1.1354 -0.89831 -2.288 -2.4915 -2.288 l-2.7458 0 l0 4.6102 l2.7458 0 z M74.40650847457627 6.4239999999999995 l-1.7798 0 c-0.18644 0 -0.32203 0.11864 -0.32203 0.33898 l0 8.2203 c0 1.7458 -1.1186 2.7966 -2.9661 2.7966 c-1.8305 0 -2.8983 -1.0508 -2.8983 -2.7966 l0 -8.2203 c0 -0.20339 -0.13559 -0.33898 -0.32203 -0.33898 l-1.7458 0 c-0.20339 0 -0.35576 0.13559 -0.35576 0.33898 l0 8.3051 c0 2.8814 1.9661 5.0507 5.322 5.0507 c3.3729 0 5.3898 -2.1693 5.3898 -5.0507 l0 -8.3051 c0 -0.22034 -0.13559 -0.33898 -0.32203 -0.33898 z M76.77966423728813 17.6442 l0.96576 -1.1188 c0.20339 -0.23746 0.45763 -0.23746 0.64407 -0.10186 c0.55932 0.47458 1.5593 1.3729 2.8136 1.3729 c1.2203 0 2.2712 -0.4578 2.2712 -1.5086 c0 -1.1017 -1.1356 -1.4237 -2.3051 -1.8983 c-2.4237 -1 -4.1864 -2.0339 -4.1864 -4.2373 c0 -1.7288 1.2712 -3.8136 4.339 -3.8136 c2.0847 0 3.5934 1.1866 4.0341 1.6273 c0.18644 0.18644 0.28814 0.42373 0.11864 0.62712 l-0.84746 1.1186 c-0.16966 0.22034 -0.40678 0.32203 -0.67797 0.13559 c-0.54237 -0.42373 -1.4237 -1.2034 -2.6102 -1.2034 c-1.2034 0 -1.9492 0.69492 -1.9492 1.5085 c0 0.89831 0.77966 1.339 2.0508 1.8475 c2.2203 0.93254 4.4407 1.9325 4.4407 4.3224 c0 1.9831 -1.9659 3.7964 -4.6439 3.7964 c-2.4237 0 -3.9322 -1.5422 -4.3559 -1.949 c-0.15254 -0.13559 -0.30508 -0.32203 -0.10169 -0.52542 z" fill="#FFFFFF"></path></g></svg>